<?xml version="1.0" encoding="UTF-8"?>
<svg xmlns="http://www.w3.org/2000/svg" xmlns:xlink="http://www.w3.org/1999/xlink" width="32px" height="32px" viewBox="0 0 32 32" version="1.1">
<g id="surface1">
<path style="fill-rule:evenodd;fill:rgb(100%,100%,100%);fill-opacity:1;stroke-width:1;stroke-linecap:butt;stroke-linejoin:miter;stroke:rgb(100%,100%,100%);stroke-opacity:1;stroke-miterlimit:4;" d="M 1416.09375 791.953125 L 1385.15625 1017.421875 L 1013.90625 1017.421875 L 1013.90625 1807.265625 L 788.203125 1807.265625 L 788.203125 1017.421875 L 449.765625 1017.421875 L 449.765625 791.953125 L 788.203125 791.953125 L 788.203125 585.234375 C 788.203125 298.359375 964.453125 112.734375 1237.265625 112.734375 C 1354.21875 112.734375 1427.109375 119.0625 1469.0625 124.6875 L 1465.78125 338.203125 L 1292.34375 338.671875 C 1287.65625 338.203125 1174.6875 329.296875 1093.125 404.296875 C 1040.390625 452.578125 1013.90625 521.71875 1013.90625 609.84375 L 1013.90625 791.953125 Z M 1168.828125 487.96875 C 1213.125 446.484375 1282.5 450.9375 1287.421875 451.171875 L 1576.875 451.171875 L 1583.203125 33.515625 L 1539.609375 22.96875 C 1511.71875 15.9375 1425.9375 0 1237.265625 0 C 901.171875 0 675.46875 235.3125 675.46875 585.234375 L 675.46875 679.21875 L 337.03125 679.21875 L 337.03125 1130.390625 L 675.46875 1130.390625 L 675.46875 1920 L 1126.640625 1920 L 1126.640625 1130.390625 L 1483.359375 1130.390625 L 1545.234375 679.21875 L 1126.640625 679.21875 L 1126.640625 609.84375 C 1126.640625 555 1140.9375 513.984375 1168.828125 487.96875 Z M 1168.828125 487.96875 " transform="matrix(0.0166667,0,0,0.0166667,0,0)"/>
</g>
</svg>
