<?xml version="1.0" encoding="UTF-8"?>
<svg xmlns="http://www.w3.org/2000/svg" xmlns:xlink="http://www.w3.org/1999/xlink" width="32px" height="32px" viewBox="0 0 32 32" version="1.1">
<g id="surface1">
<path style=" stroke:none;fill-rule:evenodd;fill:rgb(100%,100%,100%);fill-opacity:1;" d="M 9.390625 0.195312 C 6.785156 0.3125 4.527344 0.949219 2.707031 2.765625 C 0.878906 4.589844 0.25 6.855469 0.128906 9.433594 C 0.0585938 11.042969 -0.371094 23.195312 0.871094 26.382812 C 1.707031 28.535156 3.359375 30.1875 5.527344 31.027344 C 6.539062 31.421875 7.695312 31.6875 9.390625 31.765625 C 23.570312 32.40625 28.824219 32.058594 31.039062 26.382812 C 31.433594 25.375 31.703125 24.21875 31.777344 22.527344 C 32.425781 8.316406 31.675781 5.234375 29.203125 2.765625 C 27.242188 0.8125 24.9375 -0.519531 9.390625 0.195312 M 9.523438 28.90625 C 7.96875 28.839844 7.128906 28.578125 6.566406 28.363281 C 5.152344 27.8125 4.089844 26.753906 3.542969 25.347656 C 2.597656 22.925781 2.910156 11.425781 2.996094 9.5625 C 3.078125 7.738281 3.449219 6.074219 4.734375 4.789062 C 6.328125 3.199219 8.382812 2.421875 22.390625 3.054688 C 24.214844 3.136719 25.886719 3.503906 27.175781 4.789062 C 28.769531 6.375 29.558594 8.449219 28.914062 22.398438 C 28.84375 23.949219 28.585938 24.789062 28.367188 25.347656 C 26.925781 29.042969 23.613281 29.554688 9.523438 28.90625 M 22.542969 7.503906 C 22.542969 8.554688 23.398438 9.410156 24.453125 9.410156 C 25.507812 9.410156 26.367188 8.554688 26.367188 7.503906 C 26.367188 6.453125 25.507812 5.597656 24.453125 5.597656 C 23.398438 5.597656 22.542969 6.453125 22.542969 7.503906 M 7.78125 15.980469 C 7.78125 20.484375 11.441406 24.136719 15.957031 24.136719 C 20.46875 24.136719 24.128906 20.484375 24.128906 15.980469 C 24.128906 11.476562 20.46875 7.828125 15.957031 7.828125 C 11.441406 7.828125 7.78125 11.476562 7.78125 15.980469 M 10.648438 15.980469 C 10.648438 13.058594 13.023438 10.6875 15.957031 10.6875 C 18.886719 10.6875 21.261719 13.058594 21.261719 15.980469 C 21.261719 18.90625 18.886719 21.277344 15.957031 21.277344 C 13.023438 21.277344 10.648438 18.90625 10.648438 15.980469 "/>
</g>
</svg>
