<?xml version="1.0" encoding="UTF-8"?>
<svg xmlns="http://www.w3.org/2000/svg" xmlns:xlink="http://www.w3.org/1999/xlink" width="32px" height="32px" viewBox="0 0 32 32" version="1.1">
<g id="surface1">
<path style="fill-rule:evenodd;fill:rgb(100%,100%,100%);fill-opacity:1;stroke-width:1;stroke-linecap:butt;stroke-linejoin:miter;stroke:rgb(100%,100%,100%);stroke-opacity:1;stroke-miterlimit:4;" d="M 1368.515625 1166.484375 C 1277.8125 1263.046875 1162.03125 1308.75 1034.0625 1299.140625 C 938.4375 1291.875 813.984375 1225.546875 812.578125 1224.84375 L 748.828125 1190.625 L 735.234375 1261.640625 C 697.5 1455.234375 652.734375 1596.5625 553.359375 1701.5625 C 541.875 1486.875 592.5 1301.25 641.484375 1121.015625 C 662.109375 1045.546875 683.203125 967.265625 699.609375 888.75 L 703.59375 868.359375 L 692.8125 850.546875 C 641.953125 766.40625 656.953125 616.875 724.21875 537.1875 C 749.53125 506.953125 777.65625 492.1875 809.296875 492.1875 C 824.0625 492.1875 839.296875 495.234375 855.46875 501.5625 C 924.140625 528.28125 917.8125 594.375 865.3125 766.640625 C 830.390625 881.484375 794.53125 1000.078125 846.328125 1087.03125 C 873.515625 1132.265625 920.625 1161.796875 986.25 1174.6875 C 1132.96875 1203.515625 1262.34375 1135.078125 1341.5625 986.484375 C 1440.703125 801.09375 1443.515625 499.6875 1290.234375 346.40625 C 1121.953125 178.359375 846.5625 147.421875 620.15625 271.171875 C 418.59375 381.5625 321.796875 579.84375 367.265625 788.671875 C 387.421875 880.546875 350.625 925.078125 326.015625 943.828125 C 267.421875 897.890625 263.90625 773.671875 267.65625 666.796875 C 279.609375 345.234375 562.96875 141.09375 823.828125 112.5 C 1144.21875 77.109375 1492.96875 215.625 1539.609375 549.140625 C 1571.71875 779.296875 1504.6875 1021.640625 1368.515625 1166.484375 M 1645.078125 534.375 C 1595.625 180.703125 1245.234375 -41.25 812.109375 6.328125 C 506.953125 40.078125 175.078125 281.71875 161.25 663.046875 C 155.15625 825 167.8125 998.4375 306.09375 1054.453125 L 325.546875 1062.421875 L 345.234375 1054.921875 C 405.703125 1031.71875 510 941.484375 471.5625 765.703125 C 435.703125 602.578125 510.703125 452.8125 671.484375 364.6875 C 822.890625 281.953125 1057.5 264.609375 1215 422.109375 C 1321.640625 528.75 1336.875 768.984375 1247.578125 936.328125 C 1207.734375 1011.09375 1133.671875 1095 1007.109375 1070.15625 C 954.375 1059.609375 941.953125 1038.984375 937.96875 1032.1875 C 910.3125 986.015625 940.546875 885.9375 967.5 797.8125 C 1011.796875 651.5625 1067.109375 469.6875 894.375 402.1875 C 800.390625 365.625 708.75 389.765625 642.421875 468.515625 C 551.015625 577.03125 529.6875 762.890625 590.859375 886.40625 C 576.09375 954.84375 557.8125 1022.109375 538.59375 1093.125 C 479.0625 1311.09375 417.65625 1536.796875 457.734375 1816.640625 L 470.15625 1903.59375 L 541.640625 1852.5 C 706.640625 1734.375 777.1875 1570.78125 825.9375 1349.0625 C 878.671875 1372.03125 956.015625 1400.15625 1025.859375 1405.546875 C 1188.046875 1417.734375 1332.890625 1360.3125 1446.328125 1239.609375 C 1603.59375 1072.03125 1681.640625 795.234375 1645.078125 534.375 " transform="matrix(0.0166667,0,0,0.0166667,0,0)"/>
</g>
</svg>
