<?xml version="1.0" encoding="UTF-8"?>
<svg xmlns="http://www.w3.org/2000/svg" xmlns:xlink="http://www.w3.org/1999/xlink" width="32px" height="32px" viewBox="0 0 32 32" version="1.1">
<g id="surface1">
<path style=" stroke:none;fill-rule:evenodd;fill:rgb(100%,100%,100%);fill-opacity:1;" d="M 10.460938 6.367188 C 13.914062 5.878906 18.085938 5.878906 21.539062 6.367188 C 24.679688 6.8125 27.113281 9.015625 27.578125 11.386719 C 28.140625 14.261719 28.140625 17.738281 27.578125 20.613281 C 27.113281 22.984375 24.679688 25.1875 21.539062 25.632812 C 18.085938 26.121094 13.914062 26.121094 10.460938 25.632812 C 7.320312 25.1875 4.886719 22.984375 4.421875 20.613281 C 3.859375 17.738281 3.859375 14.261719 4.421875 11.386719 C 4.886719 9.015625 7.320312 6.8125 10.460938 6.367188 Z M 21.914062 3.726562 C 18.210938 3.203125 13.789062 3.203125 10.085938 3.726562 C 6.066406 4.296875 2.535156 7.164062 1.804688 10.875 C 1.175781 14.085938 1.175781 17.914062 1.804688 21.125 C 2.535156 24.835938 6.066406 27.703125 10.085938 28.273438 C 13.789062 28.796875 18.210938 28.796875 21.914062 28.273438 C 25.933594 27.703125 29.464844 24.835938 30.195312 21.125 C 30.824219 17.914062 30.824219 14.085938 30.195312 10.875 C 29.464844 7.164062 25.933594 4.296875 21.914062 3.726562 Z M 14.074219 9.558594 C 13.664062 9.285156 13.136719 9.257812 12.703125 9.492188 C 12.269531 9.722656 12 10.175781 12 10.667969 L 12 21.332031 C 12 21.824219 12.269531 22.277344 12.703125 22.507812 C 13.136719 22.742188 13.664062 22.714844 14.074219 22.441406 L 22.074219 17.109375 C 22.445312 16.863281 22.667969 16.445312 22.667969 16 C 22.667969 15.554688 22.445312 15.136719 22.074219 14.890625 Z M 18.929688 16 L 14.667969 18.84375 L 14.667969 13.15625 Z M 18.929688 16 "/>
</g>
</svg>
